#!OML:ASF H:\Martial Arts Walks\Project 1\Capture day 1\Session 1\male.ASF
:FULLY-SPECIFIED
:DEGREES
1890
root -3.55235 14.3059 7.53568 10.5041 14.6705 11.9327
lowerback 10.1907 0.125857 -13.9328
upperback -2.8683 -1.82874 -1.31686
thorax -8.54463 -0.184521 6.72292
lowerneck -1.01386 -7.45414 -8.71214
upperneck 5.57106 -10.0479 6.07546
head 2.8395 -5.0499 3.20918
rclavicle 3.3197e-014 -2.06736e-014
rhumerus -30.3467 11.0867 -72.1044
rradius 40.3615
rwrist 16.051
rhand -2.89328 -45.6982
rfingers 7.12502
rthumb 22.8164 -74.3687
lclavicle 3.3197e-014 -2.06736e-014
lhumerus -28.3781 -10.1781 86.6101
lradius 28.0562
lwrist -14.7609
lhand -20.9401 22.5016
lfingers 7.12502
lthumb 5.43222 52.412
rfemur -64.7388 -17.3002 10.0107
rtibia 77.2945
rfoot -17.6702 8.66847
rtoes 2.24191
lfemur 13.3252 6.85338 -16.9204
ltibia 24.7779
lfoot -21.7709 33.1964
ltoes -16.2579
1891
root -3.55503 14.3052 7.53571 10.4667 14.6905 12.0044
lowerback 10.1867 0.11818 -13.9483
upperback -2.85835 -1.84112 -1.33909
thorax -8.52895 -0.191905 6.70894
lowerneck -0.947431 -7.43772 -8.71697
upperneck 5.54911 -10.03 6.0718
head 2.81822 -5.04212 3.21249
rclavicle -3.51849e-014 -3.85642e-014
rhumerus -30.4039 11.1092 -72.1436
rradius 40.2923
rwrist 15.9927
rhand -3.06757 -45.7778
rfingers 7.12502
rthumb 22.6491 -74.4688
lclavicle -3.51849e-014 -3.85642e-014
lhumerus -28.4414 -10.5064 86.7747
lradius 28.2706
lwrist -14.5282
lhand -20.7959 22.8669
lfingers 7.12502
lthumb 5.5714 52.7737
rfemur -64.6851 -17.3491 9.93965
rtibia 77.3148
rfoot -17.6762 8.73399
rtoes 2.29783
lfemur 13.4037 6.80979 -16.9801
ltibia 24.736
lfoot -21.6977 33.2215
ltoes -16.3758
1892
root -3.5599 14.3044 7.53513 10.4543 14.7203 12.023
lowerback 10.1776 0.104823 -13.954
upperback -2.84996 -1.85647 -1.32869
thorax -8.51037 -0.200416 6.72575
lowerneck -0.963414 -7.41995 -8.73409
upperneck 5.56227 -10.0042 6.06189
head 2.82396 -5.02969 3.21281
rclavicle -2.96189e-014 -4.77083e-014
rhumerus -30.4363 11.1337 -72.1589
rradius 40.2386
rwrist 15.9485
rhand -3.2688 -45.7917
rfingers 7.12502
rthumb 22.456 -74.5062
lclavicle -2.96189e-014 -4.77083e-014
lhumerus -28.4742 -10.7946 86.9329
lradius 28.5
lwrist -14.3061
lhand -20.7193 23.0846
lfingers 7.12502
lthumb 5.64537 52.9894
rfemur -64.67 -17.3568 9.9327
rtibia 77.3214
rfoot -17.5874 8.83281
rtoes 2.72591
lfemur 13.4119 6.7535 -16.9819
ltibia 24.7324
lfoot -21.6378 33.2292
ltoes -16.4676
1893
root -3.56398 14.3029 7.53335 10.4385 14.7437 12.0841
lowerback 10.1987 0.0984886 -13.9731
upperback -2.84129 -1.87213 -1.35294
thorax -8.51016 -0.208085 6.71273
lowerneck -1.01141 -7.42752 -8.68015
upperneck 5.59666 -10.0106 6.01822
head 2.8384 -5.03205 3.18535
rclavicle 3.89121e-014 -8.34896e-015
rhumerus -30.5188 11.1411 -72.2055
rradius 40.2281
rwrist 15.9003
rhand -3.63971 -45.7745
rfingers 7.12502
rthumb 22.0999 -74.5315
lclavicle 3.89121e-014 -8.34896e-015
lhumerus -28.5026 -11.1032 87.0558
lradius 28.6982
lwrist -14.0825
lhand -20.8349 23.119
lfingers 7.12502
lthumb 5.53376 53.0267
rfemur -64.6504 -17.38 9.87004
rtibia 77.3303
rfoot -17.4233 9.03227
rtoes 3.31602
lfemur 13.4183 6.7327 -17.0202
ltibia 24.7619
lfoot -21.5536 33.2504
ltoes -16.5255
1894
root -3.56997 14.303 7.53061 10.4097 14.7282 12.0194
lowerback 10.1979 0.10198 -13.9258
upperback -2.83001 -1.85804 -1.32905
thorax -8.49982 -0.204353 6.71031
lowerneck -1.08665 -7.42644 -8.65453
upperneck 5.63765 -10.0036 5.99081
head 2.86212 -5.02766 3.1683
rclavicle 1.19271e-015 -5.68524e-014
rhumerus -30.5477 11.1283 -72.2267
rradius 40.1754
rwrist 15.9691
rhand -3.55457 -45.9021
rfingers 7.12502
rthumb 22.1816 -74.6495
lclavicle 1.19271e-015 -5.68524e-014
lhumerus -28.5269 -11.3195 87.1717
lradius 28.9206
lwrist -13.9511
lhand -20.9691 22.9788
lfingers 7.12502
lthumb 5.40418 52.8899
rfemur -64.6536 -17.2679 9.94739
rtibia 77.3024
rfoot -17.1931 9.2273
rtoes 3.92253
lfemur 13.3628 6.75724 -16.9306
ltibia 24.8636
lfoot -21.6575 33.205
ltoes -16.4309
1895
root -3.57591 14.3031 7.52573 10.3788 14.7381 11.9791
lowerback 10.2452 0.0935802 -13.9004
upperback -2.82621 -1.87165 -1.30419
thorax -8.51963 -0.210283 6.727
lowerneck -1.07264 -7.40653 -8.63445
upperneck 5.56303 -9.97638 5.99312
head 2.83054 -5.01345 3.1682
rclavicle -2.48481e-015 3.02153e-014
rhumerus -30.5962 11.1608 -72.2515
rradius 40.1111
rwrist 16.0073
rhand -3.42111 -45.9943
rfingers 7.12502
rthumb 22.3098 -74.7264
lclavicle -2.48481e-015 3.02153e-014
lhumerus -28.5164 -11.4991 87.2701
lradius 29.0507
lwrist -13.8303
lhand -20.962 22.8355
lfingers 7.12502
lthumb 5.41105 52.7464
rfemur -64.6476 -17.1862 10.005
rtibia 77.2691
rfoot -16.9985 9.31775
rtoes 4.25158
lfemur 13.2972 6.76289 -16.8594
ltibia 24.9969
lfoot -21.7494 33.1634
ltoes -16.423
1896
root -3.58148 14.3038 7.52095 10.3491 14.7231 11.8978
lowerback 10.2327 0.090695 -13.8252
upperback -2.82264 -1.86099 -1.2805
thorax -8.5106 -0.209262 6.70906
lowerneck -0.965853 -7.36736 -8.66394
upperneck 5.43838 -9.9318 6.06685
head 2.77164 -4.9914 3.2067
rclavicle 6.01324e-015 3.81667e-014
rhumerus -30.6365 11.1575 -72.2829
rradius 40.0063
rwrist 16.059
rhand -3.62183 -45.9134
rfingers 7.12502
rthumb 22.1171 -74.6684
lclavicle 6.01324e-015 3.81667e-014
lhumerus -28.5504 -11.6681 87.3591
lradius 29.2333
lwrist -13.7372
lhand -20.9803 22.8473
lfingers 7.12502
lthumb 5.39341 52.7587
rfemur -64.6557 -17.0592 10.1078
rtibia 77.224
rfoot -16.8478 9.30452
rtoes 4.38746
lfemur 13.2039 6.7984 -16.7557
ltibia 25.1597
lfoot -21.8462 33.1275
ltoes -16.2838
1897
root -3.5866 14.3028 7.51596 10.3369 14.7224 11.9256
lowerback 10.2595 0.0897832 -13.8515
upperback -2.82756 -1.87125 -1.2859
thorax -8.52944 -0.211398 6.72023
lowerneck -0.885478 -7.35942 -8.66234
upperneck 5.34749 -9.92618 6.09422
head 2.72714 -4.98881 3.22015
rclavicle -7.00716e-015 -4.81059e-014
rhumerus -30.7589 11.1557 -72.3013
rradius 39.9763
rwrist 16.1503
rhand -3.70882 -45.8347
rfingers 7.12502
rthumb 22.0336 -74.5995
lclavicle -7.00716e-015 -4.81059e-014
lhumerus -28.5889 -11.8461 87.4555
lradius 29.3582
lwrist -13.6227
lhand -20.91 22.9668
lfingers 7.12502
lthumb 5.46121 52.8764
rfemur -64.6586 -16.9705 10.0878
rtibia 77.187
rfoot -16.6837 9.33863
rtoes 4.95788
lfemur 13.1084 6.83619 -16.7553
ltibia 25.3349
lfoot -21.8303 33.1361
ltoes -16.3103
1898
root -3.59049 14.3039 7.51149 10.3 14.7196 11.8939
lowerback 10.2505 0.0849929 -13.8041
upperback -2.8121 -1.8685 -1.2902
thorax -8.50809 -0.214959 6.68822
lowerneck -0.799399 -7.34779 -8.65434
upperneck 5.2508 -9.91734 6.14438
head 2.68057 -4.98411 3.24073
rclavicle 1.61513e-014 -2.0276e-014
rhumerus -30.8541 11.0858 -72.3365
rradius 39.9439
rwrist 16.2134
rhand -4.02719 -45.9763
rfingers 7.12502
rthumb 21.7279 -74.7769
lclavicle 1.61513e-014 -2.0276e-014
lhumerus -28.588 -12.0254 87.5262
lradius 29.4488
lwrist -13.5351
lhand -20.9762 22.7986
lfingers 7.12502
lthumb 5.39736 52.7099
rfemur -64.6283 -16.8549 10.1156
rtibia 77.1278
rfoot -16.5199 9.24913
rtoes 4.66812
lfemur 13.0159 6.89818 -16.689
ltibia 25.5428
lfoot -21.8864 33.108
ltoes -16.2965
1899
root -3.59474 14.3046 7.50444 10.277 14.7177 11.8762
lowerback 10.2943 0.0713967 -13.7746
upperback -2.79523 -1.88821 -1.28713
thorax -8.5106 -0.226525 6.67948
lowerneck -0.830849 -7.34488 -8.66016
upperneck 5.19338 -9.91123 6.18192
head 2.66937 -4.97965 3.25453
rclavicle 8.89561e-015 -5.56597e-014
rhumerus -30.8847 11.0662 -72.356
rradius 39.8591
rwrist 16.271
rhand -4.00472 -46.0455
rfingers 7.12502
rthumb 21.7494 -74.8436
lclavicle 8.89561e-015 -5.56597e-014
lhumerus -28.5331 -12.1285 87.5667
lradius 29.525
lwrist -13.4605
lhand -21.1038 22.5772
lfingers 7.12502
lthumb 5.27416 52.4916
rfemur -64.6136 -16.7114 10.1139
rtibia 77.0666
rfoot -16.3702 9.12729
rtoes 4.13034
lfemur 12.8515 6.98707 -16.6298
ltibia 25.8563
lfoot -21.9642 33.0728
ltoes -16.1845
